<svg width="32" height="27" viewBox="0 0 32 27" fill="none" xmlns="http://www.w3.org/2000/svg">
<path d="M19.6747 10.3653H15.8799" stroke="#297FFF" stroke-width="1.94118" stroke-miterlimit="10" stroke-linecap="round" stroke-linejoin="bevel"/>
<path d="M25.3668 20.7158L15.8799 10.3653" stroke="#297FFF" stroke-width="1.94118" stroke-miterlimit="10" stroke-linecap="round" stroke-linejoin="bevel"/>
<path d="M19.7509 20.7159C19.7509 23.4357 22.2555 25.7023 25.3672 25.7023C28.4789 25.7023 30.9835 23.4357 30.9835 20.7159C30.9835 17.9961 28.4789 15.7296 25.3672 15.7296C23.318 15.7296 21.4965 16.7117 20.5099 18.2227" stroke="#297FFF" stroke-width="1.94118" stroke-miterlimit="10" stroke-linecap="round" stroke-linejoin="bevel"/>
<path d="M7.00006 17.0895C6.69648 17.0139 6.317 17.0139 5.93752 17.0139C3.28118 17.0139 1.0802 18.9782 1.0802 21.3959C1.0802 23.8135 3.28118 25.7778 5.93752 25.7778C8.59387 25.7778 10.7948 23.8135 10.7948 21.3959" stroke="#297FFF" stroke-width="1.94118" stroke-miterlimit="10" stroke-linecap="round" stroke-linejoin="bevel"/>
<path d="M15.4398 5.42101C16.5924 5.0367 17.2461 3.89126 16.9 2.86259C16.5539 1.83392 15.3389 1.31156 14.1863 1.69587C13.0337 2.08018 12.38 3.22562 12.7261 4.25429C13.0722 5.28296 14.2872 5.80532 15.4398 5.42101Z" stroke="#297FFF" stroke-width="1.94118" stroke-miterlimit="10" stroke-linecap="round" stroke-linejoin="bevel"/>
<path d="M12.6164 7.19232C10.6431 9.30774 9.12515 12.1787 8.89746 13.3119" stroke="#297FFF" stroke-width="1.94118" stroke-miterlimit="10" stroke-linecap="round" stroke-linejoin="bevel"/>
<path d="M12.4647 16.6361C10.2637 17.3161 8.06272 21.3203 5.55817 20.867L12.4647 16.6361Z" fill="#297FFF"/>
<path d="M12.4647 16.6361C10.2637 17.3161 8.06272 21.3203 5.55817 20.867" stroke="#297FFF" stroke-width="1.94118" stroke-miterlimit="10" stroke-linecap="round" stroke-linejoin="round"/>
<path d="M8.97339 13.3873C10.7949 13.1607 13.8307 14.2184 14.8174 15.5783C16.1076 17.3915 14.8174 19.8092 13.4512 21.3957" stroke="#297FFF" stroke-width="1.94118" stroke-miterlimit="10" stroke-linecap="round" stroke-linejoin="round"/>
<path d="M17.0947 16.1074C17.4719 16.1074 17.7777 15.8029 17.7777 15.4274C17.7777 15.0519 17.4719 14.7474 17.0947 14.7474C16.7174 14.7474 16.4116 15.0519 16.4116 15.4274C16.4116 15.8029 16.7174 16.1074 17.0947 16.1074Z" fill="#297FFF"/>
</svg>
